<?xml version="1.0" encoding="UTF-8"?>
<svg version="1.1" xmlns="http://www.w3.org/2000/svg" width="435" height="540">
<path d="M0 0 C2.39428711 0.16748047 2.39428711 0.16748047 5 1 C6.47875977 2.85986328 6.47875977 2.85986328 7.69140625 5.3203125 C8.15498535 6.23635254 8.61856445 7.15239258 9.09619141 8.09619141 C9.58007324 9.09569824 10.06395508 10.09520508 10.5625 11.125 C11.62308358 13.23989152 12.6842991 15.35446624 13.74609375 17.46875 C14.28476074 18.55542969 14.82342773 19.64210938 15.37841797 20.76171875 C17.3998292 24.79845446 19.50498606 28.78724833 21.61791992 32.77661133 C26.41793228 41.84865802 31.00907924 50.99759304 35.35205078 60.29736328 C38.6709589 67.3958528 42.17483356 74.39742319 45.6930542 81.39840698 C49.84984211 89.67286673 53.99563169 97.952856 58.14214516 106.23246861 C59.69289261 109.3287771 61.24440508 112.42469752 62.79760742 115.51977539 C75.50271112 140.83976454 75.50271112 140.83976454 81.13157654 152.95454407 C83.39302856 157.80698814 85.82840532 162.54124508 88.375 167.25 C92.44130249 174.81493542 96.1821568 182.51141717 99.84326172 190.28027344 C103.43421338 197.88769022 107.18142686 205.4104959 110.95870972 212.92648315 C112.64379859 216.28199336 114.3216107 219.64113523 116 223 C116.66663002 224.33335165 117.33329673 225.66668497 118 227 C119.33333333 229.66666667 120.66666667 232.33333333 122 235 C122.33033737 235.66061935 122.66067474 236.32123871 123.00102234 237.00187683 C123.66446043 238.32886448 124.32772069 239.65594104 124.99079895 240.98310852 C126.70537987 244.41429939 128.4234686 247.84366798 130.1472168 251.27026367 C141.32452588 273.50895289 151.20720562 293.81588608 144 319 C138.93700858 332.61827724 129.57699377 342.05892325 117 349 C116.36578125 349.35964844 115.7315625 349.71929687 115.078125 350.08984375 C112.48581301 351.48224895 110.99824011 352 108 352 C118.51731605 372.77521899 118.51731605 372.77521899 129.69702148 393.1953125 C133.07040991 399.07343984 136.28437414 405.03436135 139.5 411 C143.24939534 417.95394651 147.03118349 424.88292015 150.9375 431.75 C153.3453381 435.98851651 155.6666748 440.24652431 157.8125 444.625 C162.03649862 453.23545872 166.74622842 461.59077604 171.35595703 469.99853516 C178.97596165 483.91007909 186.51225953 497.86033511 193.80566406 511.94628906 C196.00766406 516.19735177 198.22253426 520.43643188 200.52734375 524.6328125 C200.90656982 525.32624756 201.2857959 526.01968262 201.67651367 526.73413086 C202.66823222 528.53871128 203.66962539 530.33796589 204.671875 532.13671875 C206 535 206 535 206 539 C200.4902102 539.33604817 197.09830082 538.46917931 192.1875 536 C190.85505797 535.34583766 189.52168488 534.69356912 188.1875 534.04296875 C187.49785156 533.70313965 186.80820312 533.36331055 186.09765625 533.01318359 C182.66721498 531.35625491 179.17702498 529.83993208 175.6875 528.3125 C164.88626835 523.54527885 154.17972804 518.5743412 143.46923828 513.60742188 C140.00067275 512.00031171 136.52984842 510.39816736 133.05859375 508.796875 C121.65433991 503.52809377 110.29396321 498.18886229 99 492.6875 C86.74603194 486.72526905 74.32183232 481.1830138 61.83398438 475.73120117 C54.0901135 472.33930243 46.46996935 468.79358975 38.93049622 464.96813965 C31.71912234 461.32125582 24.368751 458.00145795 17 454.6875 C14.82601396 453.70543302 12.65253074 452.72225871 10.47904968 451.73907471 C9.03432293 451.08566615 7.58942915 450.43262676 6.1443634 449.77996826 C-0.18618415 446.92014189 -6.50117602 444.02699141 -12.8125 441.125 C-20.464066 437.6111308 -28.12945591 434.13059719 -35.81201172 430.68505859 C-43.15267882 427.38957067 -50.47644338 424.05726909 -57.7996521 420.72323608 C-70.2317455 415.06363706 -82.67794052 409.43794544 -95.14794922 403.86230469 C-101.53102782 401.00720297 -107.90836086 398.14028981 -114.27734375 395.25390625 C-114.97102051 394.93973251 -115.66469727 394.62555878 -116.37939453 394.30186462 C-119.72023597 392.78863155 -123.06027983 391.27368595 -126.39892578 389.75561523 C-133.87667054 386.36320136 -141.39856786 383.10613116 -149 380 C-149.36609375 381.21429688 -149.7321875 382.42859375 -150.109375 383.6796875 C-152.25054709 390.09568208 -155.26826497 396.06600526 -158.25 402.125 C-162.93068262 411.70663266 -167.52183711 421.32248271 -172 431 C-172.3338269 431.72098877 -172.66765381 432.44197754 -173.01159668 433.18481445 C-175.20905116 437.9322972 -177.40246261 442.68163715 -179.59393311 447.43188477 C-180.77512451 449.99195389 -181.95711133 452.55165479 -183.13916016 455.11132812 C-186.60074384 462.61005761 -190.05713318 470.1108459 -193.4765625 477.62890625 C-194.22534668 479.27354858 -194.22534668 479.27354858 -194.98925781 480.95141602 C-195.87962031 482.91018213 -196.76722617 484.87020491 -197.65136719 486.83178711 C-199.87278467 491.71826459 -202.25436899 496.38633693 -205 501 C-208.43804294 500.69329496 -211.87531287 500.3786405 -215.3125 500.0625 C-216.28896484 499.97548828 -217.26542969 499.88847656 -218.27148438 499.79882812 C-219.20927734 499.71181641 -220.14707031 499.62480469 -221.11328125 499.53515625 C-221.97735596 499.456604 -222.84143066 499.37805176 -223.73168945 499.29711914 C-226 499 -226 499 -229 498 C-228.60115975 490.85155552 -225.496283 485.06690374 -222.4375 478.6875 C-221.33614016 476.35077829 -220.23588299 474.01353654 -219.13671875 471.67578125 C-218.59837402 470.5357666 -218.0600293 469.39575195 -217.50537109 468.22119141 C-215.22818839 463.34847837 -213.06156044 458.42898882 -210.93920898 453.48706055 C-208.90294756 448.82205092 -206.64630557 444.28040983 -204.3515625 439.73828125 C-199.981263 431.07225965 -195.90035976 422.28112916 -191.84487915 413.46432495 C-189.77313379 408.96067716 -187.69318744 404.46082089 -185.61328125 399.9609375 C-185.00950905 398.65415291 -185.00950905 398.65415291 -184.39353943 397.32096863 C-180.00966927 387.84202661 -175.53480165 378.40767334 -171 369 C-172.07701172 368.5978125 -172.07701172 368.5978125 -173.17578125 368.1875 C-187.05864084 362.35017038 -196.58527863 351.78194595 -204 339 C-204.58201172 338.11248047 -204.58201172 338.11248047 -205.17578125 337.20703125 C-213.47779243 324.22512187 -214.97926326 306.09518434 -212.31640625 291.16796875 C-209.52108465 280.64781651 -204.59423832 269.98309993 -197 262 C-196.34 262 -195.68 262 -195 262 C-194.75894531 261.40960938 -194.51789063 260.81921875 -194.26953125 260.2109375 C-189.19894479 251.38031616 -175.04459368 246.37121993 -165.765625 243.73828125 C-148.65083382 239.31787994 -131.9778821 240.08383717 -115 245 C-103.69255844 221.29113203 -92.39444809 197.58903057 -81.6953125 173.59765625 C-81.40919098 172.95679581 -81.12306946 172.31593536 -80.82827759 171.65565491 C-79.43962441 168.54499268 -78.05444605 165.43295585 -76.67626953 162.31762695 C-74.07180225 156.46564984 -71.37404699 150.68975016 -68.484375 144.97265625 C-65.09419375 138.26335104 -62.01059042 131.44902435 -59 124.5625 C-54.79554705 114.97882048 -50.46160575 105.46595838 -46 96 C-45.69040344 95.34272919 -45.38080688 94.68545837 -45.06182861 94.00827026 C-42.73295779 89.06600831 -40.3980179 84.1266233 -38.0625 79.1875 C-33.61929859 69.78775201 -29.1782805 60.38702735 -24.7578125 50.9765625 C-18.55924013 37.78099736 -12.35465117 24.58877478 -6.0625 11.4375 C-5.56000732 10.38409424 -5.05751465 9.33068848 -4.53979492 8.24536133 C-4.08451416 7.29685303 -3.6292334 6.34834473 -3.16015625 5.37109375 C-2.76449463 4.54536865 -2.36883301 3.71964355 -1.96118164 2.86889648 C-1 1 -1 1 0 0 Z M2 47 C1.77973145 47.50317749 1.55946289 48.00635498 1.33251953 48.52478027 C-0.99943081 53.84960004 -3.33725271 59.17181538 -5.67822266 64.49267578 C-6.54653689 66.4682751 -7.41344306 68.44449401 -8.27880859 70.42138672 C-13.03379673 81.28127271 -17.89967279 92.03293085 -23.27978516 102.59814453 C-25.54287646 107.07357941 -27.63818248 111.61118032 -29.6875 116.1875 C-30.09629395 117.09346924 -30.50508789 117.99943848 -30.92626953 118.93286133 C-32.28780434 121.95362417 -33.64410035 124.97670393 -35 128 C-36.03508746 130.30211426 -37.07024646 132.60419636 -38.10546875 134.90625 C-43.03900677 145.88806947 -47.95079322 156.87918739 -52.82836914 167.88598633 C-58.86761239 181.50979458 -65.07416682 195.02192061 -71.55981445 208.43896484 C-76.52618271 218.71890953 -81.45784157 229.0124762 -86.25 239.375 C-86.71567383 240.37265381 -87.18134766 241.37030762 -87.66113281 242.39819336 C-88.08749023 243.32639893 -88.51384766 244.25460449 -88.953125 245.2109375 C-89.32598633 246.01837402 -89.69884766 246.82581055 -90.08300781 247.65771484 C-91.03657989 250.0934365 -91.56467803 252.42520193 -92 255 C-91.00262817 255.45717407 -91.00262817 255.45717407 -89.98510742 255.92358398 C-71.54348195 264.39312915 -53.26516037 273.17087513 -35.02641296 282.06770325 C-29.19848837 284.90845932 -23.35394637 287.71325402 -17.5 290.5 C-8.44031973 294.81762231 0.59580612 299.18300461 9.62451172 303.56494141 C11.13395992 304.29751929 12.64355604 305.02979248 14.15332031 305.76171875 C21.24364541 309.19983944 28.3252018 312.6507701 35.36105347 316.19929504 C41.93016322 319.51118514 48.51295064 322.68081556 55.3125 325.5 C56.12138672 325.84546875 56.93027344 326.1909375 57.76367188 326.546875 C58.92672852 327.03414063 58.92672852 327.03414063 60.11328125 327.53125 C60.79173096 327.81548828 61.47018066 328.09972656 62.16918945 328.39257812 C64.15307185 329.15744925 64.15307185 329.15744925 67 329 C65.37638779 323.49570859 62.91696448 318.56139284 60.34375 313.45703125 C59.88198364 312.53395676 59.42021729 311.61088226 58.94445801 310.65983582 C57.96454139 308.70301926 56.98268412 306.74717348 55.99902344 304.79223633 C54.5287137 301.86957666 53.06459316 298.94388708 51.6015625 296.01757812 C46.61407774 286.06186387 41.55479517 276.1496832 36.33312988 266.31452942 C33.09618012 260.21726072 29.98521778 254.06298292 26.92578125 247.875 C25.65247733 245.30125935 24.35790361 242.74021293 23.04296875 240.1875 C15.11344578 224.73178287 7.69148561 209.05114783 4 192 C3.80921875 191.21753906 3.6184375 190.43507812 3.421875 189.62890625 C1.68655523 178.81529325 2.4374359 167.32416534 6 157 C6.30550781 156.06414062 6.61101562 155.12828125 6.92578125 154.1640625 C10.37688088 144.80217041 16.19080586 137.01689139 22 129 C25.11463484 131.88175482 26.49714268 135.0581362 28.0625 138.9375 C29.97832819 143.66164539 29.97832819 143.66164539 32.19140625 148.25 C33.90397774 151.95643493 32.37260057 155.92450229 31.10546875 159.58203125 C30.40205329 161.46570937 29.69627039 163.3485049 28.98828125 165.23046875 C22.92340891 182.22649441 28.11442802 196.53695091 35.53834534 212.25753784 C37.23933683 215.72451649 38.96349151 219.17924706 40.69921875 222.62890625 C41.34101773 223.91130612 41.98251577 225.19385665 42.62373352 226.47654724 C43.96176626 229.15106081 45.3024396 231.82422684 46.64526367 234.49633789 C48.33568748 237.86032669 50.02090401 241.2268893 51.70436859 244.59436512 C57.83359481 256.85231912 63.98203887 269.09579613 70.40748596 281.20199585 C75.59190451 290.97268528 80.59691075 300.8357493 85.625 310.6875 C86.63921751 312.6725799 87.65353993 314.6576062 88.66796875 316.64257812 C91.11318282 321.42777134 93.55712453 326.21361253 96 331 C105.23331631 328.85316896 112.71982985 322.73776086 118 315 C123.57407883 304.229746 122.72477477 295.57097499 119.16015625 284.34179688 C117.51633326 279.60681181 115.4778333 275.17214655 113.25 270.6875 C112.75830322 269.67896973 112.26660645 268.67043945 111.76000977 267.63134766 C104.90667769 253.64548477 97.89383566 239.7357099 90.89355469 225.82299805 C85.47071266 215.03259114 80.15462289 204.20136511 74.97042847 193.29423523 C71.00792896 184.97309363 66.89336468 176.73453859 62.73556519 168.50967407 C56.24785443 155.66674438 49.95603772 142.77651454 44.01293945 129.67114258 C40.46629857 121.89143448 36.61687204 114.32193498 32.546875 106.8046875 C26.07357087 94.74659828 20.17940697 82.36166039 14.18823242 70.05908203 C13.42687428 68.49739794 12.6638058 66.9365467 11.89916992 65.37646484 C10.77413272 63.08088651 9.65408317 60.78293662 8.53515625 58.484375 C8.19355972 57.78963074 7.8519632 57.09488647 7.50001526 56.37908936 C5.99538892 53.27476301 4.75878471 50.36149294 4 47 C3.34 47 2.68 47 2 47 Z M-180 283 C-186.34727065 291.76460535 -189.08945129 300.17716153 -188 311 C-185.74353992 323.03982628 -178.35561493 333.02535667 -168.75 340.375 C-155.98083899 348.88187873 -141.36596989 354.42379638 -127.35742188 360.53076172 C-121.91479661 362.91250393 -116.48895361 365.33169354 -111.0625 367.75 C-103.68002492 371.0379073 -96.29319974 374.31513181 -88.89453125 377.56640625 C-63.59155293 388.68828573 -38.42015446 400.07787998 -13.34863281 411.71240234 C-4.88403252 415.62618508 3.63981899 419.3967479 12.20507812 423.08496094 C17.47116493 425.37075049 22.63344464 427.789615 27.7578125 430.37890625 C34.60943996 433.83987817 41.55550873 437.04562401 48.5553894 440.19381714 C52.17928544 441.82432188 55.79840332 443.46537846 59.41796875 445.10546875 C60.14764359 445.43589676 60.87731842 445.76632477 61.62910461 446.10676575 C73.12633029 451.31752326 84.56596992 456.65225152 96 462 C96.68805725 462.32158081 97.3761145 462.64316162 98.08502197 462.9744873 C102.56998369 465.07080012 107.05342397 467.17032451 111.53518677 469.27346802 C112.97848835 469.95056191 114.42205851 470.62708367 115.86593628 471.302948 C124.1816964 475.19721341 132.4478055 479.16356422 140.61077881 483.3709259 C144.33199196 485.26476084 148.00501767 486.78545472 152 488 C150.41721764 482.41051714 147.76489503 477.65571019 144.9375 472.625 C144.44870361 471.74593994 143.95990723 470.86687988 143.45629883 469.96118164 C141.97673575 467.30411993 140.48977939 464.6513449 139 462 C138.57138672 461.2363916 138.14277344 460.4727832 137.70117188 459.68603516 C135.44046201 455.66073421 135.44046201 455.66073421 133.16967773 451.64111328 C127.57086211 441.74800743 122.23088564 431.71338859 116.875 421.6875 C111.7322318 412.0670758 106.54385614 402.47326058 101.29418945 392.91064453 C98.81018406 388.37089601 96.36949934 383.8133538 93.98828125 379.21875 C93.49682617 378.27056396 93.00537109 377.32237793 92.49902344 376.34545898 C91.57395977 374.55334466 90.65365368 372.75876244 89.73925781 370.96118164 C88.53124185 368.61756548 87.27484121 366.30777756 86 364 C85.66274902 363.3191333 85.32549805 362.6382666 84.97802734 361.93676758 C83.24369925 358.90228386 81.93558312 357.3433551 78.60180664 356.11987305 C75.57667335 355.45922981 72.56655004 354.99077233 69.5 354.5625 C50.50373327 351.32081156 33.93982828 343.78121158 16.74169922 335.33837891 C12.89235574 333.45929601 9.02264002 331.62393664 5.15380859 329.78540039 C-3.09098492 325.86522162 -11.29574225 321.879361 -19.44677734 317.76806641 C-24.17983388 315.38877238 -28.96049854 313.12735934 -33.76855469 310.90283203 C-47.21471772 304.66944386 -60.53962839 298.1736394 -73.8671875 291.69140625 C-74.63216553 291.31941101 -75.39714355 290.94741577 -76.18530273 290.56414795 C-79.95945567 288.72848317 -83.73280964 286.89120418 -87.50488281 285.05126953 C-91.6649154 283.02374595 -95.83090421 281.00881194 -100 279 C-100.68074585 278.6707251 -101.3614917 278.3414502 -102.06286621 278.00219727 C-112.24471656 273.06526733 -112.24471656 273.06526733 -123 269.625 C-124.175625 269.32851563 -125.35125 269.03203125 -126.5625 268.7265625 C-145.84837298 264.65023026 -166.24422639 267.70911817 -180 283 Z " fill="#CAAA61" transform="translate(229,1)"/>
<path d="M0 0 C16.91494997 5.02545615 16.91494997 5.02545615 20.22412109 9.74633789 C22.82755284 17.30841417 14.4432508 30.10623115 11.3125 37 C10.79010742 38.16249268 10.26771484 39.32498535 9.72949219 40.52270508 C8.15796866 44.01740328 6.57911177 47.5087256 5 51 C4.07088221 53.06607706 3.14245293 55.13246393 2.21484375 57.19921875 C0.14850088 61.80187125 -1.92373809 66.40181389 -4 71 C-9.47361889 70.4560915 -13.58317001 68.44606199 -18.375 65.9375 C-19.11105469 65.56044922 -19.84710938 65.18339844 -20.60546875 64.79492188 C-22.40739646 63.87055636 -24.20423099 62.93627386 -26 62 C-25.4620632 57.10029872 -24.42700544 53.10425594 -22.4453125 48.59765625 C-21.91776367 47.38811279 -21.39021484 46.17856934 -20.84667969 44.93237305 C-20.27314756 43.64225477 -19.69924673 42.35230035 -19.125 41.0625 C-18.54017314 39.73305607 -17.95586879 38.40338217 -17.37207031 37.07348633 C-12.69031964 26.43859766 -7.90992635 15.84610226 -3.046875 5.29296875 C-2.67401367 4.4836792 -2.30115234 3.67438965 -1.91699219 2.84057617 C-1 1 -1 1 0 0 Z " fill="#CAAA61" transform="translate(99,279)"/>
</svg>
