<?xml version="1.0" encoding="UTF-8"?>
<svg xmlns="http://www.w3.org/2000/svg" viewBox="0 0 350 350" width="350" height="350">
	<title>aovo.kr QR Code</title>
	<desc>https://aovo.kr</desc>
	<rect fill="#ffffff" x="0" y="0" width="350" height="350"/>
	<path fill="#000000" d="M 28,28 l 14,0 0,14 -14,0 z M 42,28 l 14,0 0,14 -14,0 z M 56,28 l 14,0 0,14 -14,0 z M 70,28 l 14,0 0,14 -14,0 z M 84,28 l 14,0 0,14 -14,0 z M 98,28 l 14,0 0,14 -14,0 z M 112,28 l 14,0 0,14 -14,0 z M 168,28 l 14,0 0,14 -14,0 z M 196,28 l 14,0 0,14 -14,0 z M 224,28 l 14,0 0,14 -14,0 z M 238,28 l 14,0 0,14 -14,0 z M 252,28 l 14,0 0,14 -14,0 z M 266,28 l 14,0 0,14 -14,0 z M 280,28 l 14,0 0,14 -14,0 z M 294,28 l 14,0 0,14 -14,0 z M 308,28 l 14,0 0,14 -14,0 z M 28,42 l 14,0 0,14 -14,0 z M 112,42 l 14,0 0,14 -14,0 z M 140,42 l 14,0 0,14 -14,0 z M 154,42 l 14,0 0,14 -14,0 z M 168,42 l 14,0 0,14 -14,0 z M 196,42 l 14,0 0,14 -14,0 z M 224,42 l 14,0 0,14 -14,0 z M 308,42 l 14,0 0,14 -14,0 z M 28,56 l 14,0 0,14 -14,0 z M 56,56 l 14,0 0,14 -14,0 z M 70,56 l 14,0 0,14 -14,0 z M 84,56 l 14,0 0,14 -14,0 z M 112,56 l 14,0 0,14 -14,0 z M 168,56 l 14,0 0,14 -14,0 z M 224,56 l 14,0 0,14 -14,0 z M 252,56 l 14,0 0,14 -14,0 z M 266,56 l 14,0 0,14 -14,0 z M 280,56 l 14,0 0,14 -14,0 z M 308,56 l 14,0 0,14 -14,0 z M 28,70 l 14,0 0,14 -14,0 z M 56,70 l 14,0 0,14 -14,0 z M 70,70 l 14,0 0,14 -14,0 z M 84,70 l 14,0 0,14 -14,0 z M 112,70 l 14,0 0,14 -14,0 z M 140,70 l 14,0 0,14 -14,0 z M 154,70 l 14,0 0,14 -14,0 z M 196,70 l 14,0 0,14 -14,0 z M 224,70 l 14,0 0,14 -14,0 z M 252,70 l 14,0 0,14 -14,0 z M 266,70 l 14,0 0,14 -14,0 z M 280,70 l 14,0 0,14 -14,0 z M 308,70 l 14,0 0,14 -14,0 z M 28,84 l 14,0 0,14 -14,0 z M 56,84 l 14,0 0,14 -14,0 z M 70,84 l 14,0 0,14 -14,0 z M 84,84 l 14,0 0,14 -14,0 z M 112,84 l 14,0 0,14 -14,0 z M 154,84 l 14,0 0,14 -14,0 z M 182,84 l 14,0 0,14 -14,0 z M 224,84 l 14,0 0,14 -14,0 z M 252,84 l 14,0 0,14 -14,0 z M 266,84 l 14,0 0,14 -14,0 z M 280,84 l 14,0 0,14 -14,0 z M 308,84 l 14,0 0,14 -14,0 z M 28,98 l 14,0 0,14 -14,0 z M 112,98 l 14,0 0,14 -14,0 z M 140,98 l 14,0 0,14 -14,0 z M 182,98 l 14,0 0,14 -14,0 z M 196,98 l 14,0 0,14 -14,0 z M 224,98 l 14,0 0,14 -14,0 z M 308,98 l 14,0 0,14 -14,0 z M 28,112 l 14,0 0,14 -14,0 z M 42,112 l 14,0 0,14 -14,0 z M 56,112 l 14,0 0,14 -14,0 z M 70,112 l 14,0 0,14 -14,0 z M 84,112 l 14,0 0,14 -14,0 z M 98,112 l 14,0 0,14 -14,0 z M 112,112 l 14,0 0,14 -14,0 z M 140,112 l 14,0 0,14 -14,0 z M 168,112 l 14,0 0,14 -14,0 z M 196,112 l 14,0 0,14 -14,0 z M 224,112 l 14,0 0,14 -14,0 z M 238,112 l 14,0 0,14 -14,0 z M 252,112 l 14,0 0,14 -14,0 z M 266,112 l 14,0 0,14 -14,0 z M 280,112 l 14,0 0,14 -14,0 z M 294,112 l 14,0 0,14 -14,0 z M 308,112 l 14,0 0,14 -14,0 z M 154,126 l 14,0 0,14 -14,0 z M 182,126 l 14,0 0,14 -14,0 z M 28,140 l 14,0 0,14 -14,0 z M 42,140 l 14,0 0,14 -14,0 z M 56,140 l 14,0 0,14 -14,0 z M 70,140 l 14,0 0,14 -14,0 z M 84,140 l 14,0 0,14 -14,0 z M 112,140 l 14,0 0,14 -14,0 z M 126,140 l 14,0 0,14 -14,0 z M 140,140 l 14,0 0,14 -14,0 z M 210,140 l 14,0 0,14 -14,0 z M 238,140 l 14,0 0,14 -14,0 z M 266,140 l 14,0 0,14 -14,0 z M 294,140 l 14,0 0,14 -14,0 z M 70,154 l 14,0 0,14 -14,0 z M 140,154 l 14,0 0,14 -14,0 z M 154,154 l 14,0 0,14 -14,0 z M 210,154 l 14,0 0,14 -14,0 z M 224,154 l 14,0 0,14 -14,0 z M 238,154 l 14,0 0,14 -14,0 z M 252,154 l 14,0 0,14 -14,0 z M 266,154 l 14,0 0,14 -14,0 z M 280,154 l 14,0 0,14 -14,0 z M 294,154 l 14,0 0,14 -14,0 z M 308,154 l 14,0 0,14 -14,0 z M 28,168 l 14,0 0,14 -14,0 z M 70,168 l 14,0 0,14 -14,0 z M 84,168 l 14,0 0,14 -14,0 z M 98,168 l 14,0 0,14 -14,0 z M 112,168 l 14,0 0,14 -14,0 z M 140,168 l 14,0 0,14 -14,0 z M 154,168 l 14,0 0,14 -14,0 z M 168,168 l 14,0 0,14 -14,0 z M 182,168 l 14,0 0,14 -14,0 z M 196,168 l 14,0 0,14 -14,0 z M 210,168 l 14,0 0,14 -14,0 z M 224,168 l 14,0 0,14 -14,0 z M 238,168 l 14,0 0,14 -14,0 z M 280,168 l 14,0 0,14 -14,0 z M 294,168 l 14,0 0,14 -14,0 z M 28,182 l 14,0 0,14 -14,0 z M 42,182 l 14,0 0,14 -14,0 z M 84,182 l 14,0 0,14 -14,0 z M 98,182 l 14,0 0,14 -14,0 z M 140,182 l 14,0 0,14 -14,0 z M 154,182 l 14,0 0,14 -14,0 z M 210,182 l 14,0 0,14 -14,0 z M 252,182 l 14,0 0,14 -14,0 z M 266,182 l 14,0 0,14 -14,0 z M 280,182 l 14,0 0,14 -14,0 z M 70,196 l 14,0 0,14 -14,0 z M 112,196 l 14,0 0,14 -14,0 z M 140,196 l 14,0 0,14 -14,0 z M 168,196 l 14,0 0,14 -14,0 z M 182,196 l 14,0 0,14 -14,0 z M 224,196 l 14,0 0,14 -14,0 z M 252,196 l 14,0 0,14 -14,0 z M 266,196 l 14,0 0,14 -14,0 z M 308,196 l 14,0 0,14 -14,0 z M 140,210 l 14,0 0,14 -14,0 z M 154,210 l 14,0 0,14 -14,0 z M 168,210 l 14,0 0,14 -14,0 z M 238,210 l 14,0 0,14 -14,0 z M 252,210 l 14,0 0,14 -14,0 z M 266,210 l 14,0 0,14 -14,0 z M 280,210 l 14,0 0,14 -14,0 z M 308,210 l 14,0 0,14 -14,0 z M 28,224 l 14,0 0,14 -14,0 z M 42,224 l 14,0 0,14 -14,0 z M 56,224 l 14,0 0,14 -14,0 z M 70,224 l 14,0 0,14 -14,0 z M 84,224 l 14,0 0,14 -14,0 z M 98,224 l 14,0 0,14 -14,0 z M 112,224 l 14,0 0,14 -14,0 z M 140,224 l 14,0 0,14 -14,0 z M 154,224 l 14,0 0,14 -14,0 z M 168,224 l 14,0 0,14 -14,0 z M 196,224 l 14,0 0,14 -14,0 z M 210,224 l 14,0 0,14 -14,0 z M 238,224 l 14,0 0,14 -14,0 z M 280,224 l 14,0 0,14 -14,0 z M 294,224 l 14,0 0,14 -14,0 z M 28,238 l 14,0 0,14 -14,0 z M 112,238 l 14,0 0,14 -14,0 z M 154,238 l 14,0 0,14 -14,0 z M 182,238 l 14,0 0,14 -14,0 z M 210,238 l 14,0 0,14 -14,0 z M 238,238 l 14,0 0,14 -14,0 z M 252,238 l 14,0 0,14 -14,0 z M 266,238 l 14,0 0,14 -14,0 z M 280,238 l 14,0 0,14 -14,0 z M 294,238 l 14,0 0,14 -14,0 z M 308,238 l 14,0 0,14 -14,0 z M 28,252 l 14,0 0,14 -14,0 z M 56,252 l 14,0 0,14 -14,0 z M 70,252 l 14,0 0,14 -14,0 z M 84,252 l 14,0 0,14 -14,0 z M 112,252 l 14,0 0,14 -14,0 z M 140,252 l 14,0 0,14 -14,0 z M 154,252 l 14,0 0,14 -14,0 z M 182,252 l 14,0 0,14 -14,0 z M 224,252 l 14,0 0,14 -14,0 z M 238,252 l 14,0 0,14 -14,0 z M 252,252 l 14,0 0,14 -14,0 z M 266,252 l 14,0 0,14 -14,0 z M 294,252 l 14,0 0,14 -14,0 z M 308,252 l 14,0 0,14 -14,0 z M 28,266 l 14,0 0,14 -14,0 z M 56,266 l 14,0 0,14 -14,0 z M 70,266 l 14,0 0,14 -14,0 z M 84,266 l 14,0 0,14 -14,0 z M 112,266 l 14,0 0,14 -14,0 z M 140,266 l 14,0 0,14 -14,0 z M 154,266 l 14,0 0,14 -14,0 z M 210,266 l 14,0 0,14 -14,0 z M 224,266 l 14,0 0,14 -14,0 z M 252,266 l 14,0 0,14 -14,0 z M 280,266 l 14,0 0,14 -14,0 z M 28,280 l 14,0 0,14 -14,0 z M 56,280 l 14,0 0,14 -14,0 z M 70,280 l 14,0 0,14 -14,0 z M 84,280 l 14,0 0,14 -14,0 z M 112,280 l 14,0 0,14 -14,0 z M 140,280 l 14,0 0,14 -14,0 z M 154,280 l 14,0 0,14 -14,0 z M 168,280 l 14,0 0,14 -14,0 z M 182,280 l 14,0 0,14 -14,0 z M 196,280 l 14,0 0,14 -14,0 z M 210,280 l 14,0 0,14 -14,0 z M 224,280 l 14,0 0,14 -14,0 z M 238,280 l 14,0 0,14 -14,0 z M 280,280 l 14,0 0,14 -14,0 z M 28,294 l 14,0 0,14 -14,0 z M 112,294 l 14,0 0,14 -14,0 z M 140,294 l 14,0 0,14 -14,0 z M 210,294 l 14,0 0,14 -14,0 z M 252,294 l 14,0 0,14 -14,0 z M 266,294 l 14,0 0,14 -14,0 z M 280,294 l 14,0 0,14 -14,0 z M 28,308 l 14,0 0,14 -14,0 z M 42,308 l 14,0 0,14 -14,0 z M 56,308 l 14,0 0,14 -14,0 z M 70,308 l 14,0 0,14 -14,0 z M 84,308 l 14,0 0,14 -14,0 z M 98,308 l 14,0 0,14 -14,0 z M 112,308 l 14,0 0,14 -14,0 z M 140,308 l 14,0 0,14 -14,0 z M 154,308 l 14,0 0,14 -14,0 z M 168,308 l 14,0 0,14 -14,0 z M 182,308 l 14,0 0,14 -14,0 z M 196,308 l 14,0 0,14 -14,0 z M 210,308 l 14,0 0,14 -14,0 z M 224,308 l 14,0 0,14 -14,0 z M 238,308 l 14,0 0,14 -14,0 z M 266,308 l 14,0 0,14 -14,0 z M 294,308 l 14,0 0,14 -14,0 z"/>
</svg>
